<svg width="36" height="36" viewBox="0 0 36 36" fill="none" xmlns="http://www.w3.org/2000/svg">
<path d="M21.9203 14.8184C21.8675 14.766 21.7961 14.7367 21.7217 14.7367C21.6473 14.7367 21.5759 14.766 21.5231 14.8184L18.5523 17.7891C17.8949 17.6133 17.1672 17.782 16.6504 18.2988C16.4673 18.4815 16.3221 18.6985 16.223 18.9374C16.1239 19.1763 16.0729 19.4324 16.0729 19.691C16.0729 19.9496 16.1239 20.2057 16.223 20.4446C16.3221 20.6835 16.4673 20.9005 16.6504 21.0832C16.8331 21.2662 17.0501 21.4115 17.289 21.5106C17.5279 21.6096 17.784 21.6606 18.0426 21.6606C18.3012 21.6606 18.5573 21.6096 18.7962 21.5106C19.0351 21.4115 19.2521 21.2662 19.4348 21.0832C19.6796 20.8391 19.8557 20.5347 19.9452 20.2007C20.0347 19.8668 20.0345 19.5151 19.9445 19.1812L22.9152 16.2105C23.0242 16.1016 23.0242 15.9223 22.9152 15.8133L21.9203 14.8184ZM17.2269 11.25H18.7738C18.9285 11.25 19.0551 11.1234 19.0551 10.9688V8.15625C19.0551 8.00156 18.9285 7.875 18.7738 7.875H17.2269C17.0723 7.875 16.9457 8.00156 16.9457 8.15625V10.9688C16.9457 11.1234 17.0723 11.25 17.2269 11.25Z" fill="#C52390"/>
<path d="M32.5125 13.5563C31.7219 11.6849 30.5757 9.98475 29.1375 8.55C27.7028 7.11179 26.0026 5.96561 24.1313 5.175C22.1871 4.35234 20.127 3.9375 18 3.9375C15.873 3.9375 13.8129 4.35234 11.8688 5.175C9.99741 5.96561 8.29725 7.11179 6.8625 8.55C5.42429 9.98475 4.27811 11.6849 3.4875 13.5563C2.66484 15.5004 2.25 17.5605 2.25 19.6875C2.25 24.3527 4.29961 28.7473 7.87148 31.7496L7.93125 31.7988C8.13516 31.9676 8.3918 32.0625 8.65547 32.0625H27.348C27.6117 32.0625 27.8684 31.9676 28.0723 31.7988L28.132 31.7496C31.7004 28.7473 33.75 24.3527 33.75 19.6875C33.75 17.5605 33.3316 15.5004 32.5125 13.5563ZM26.768 29.3906H9.23203C7.87358 28.1658 6.78786 26.6689 6.04532 24.9973C5.30278 23.3257 4.92002 21.5166 4.92188 19.6875C4.92188 16.193 6.28242 12.9094 8.75391 10.4414C11.2254 7.96992 14.509 6.60938 18 6.60938C21.4945 6.60938 24.7781 7.96992 27.2461 10.4414C29.7176 12.9129 31.0781 16.1965 31.0781 19.6875C31.0781 23.4 29.5137 26.9121 26.768 29.3906Z" fill="#C52390"/>
<path d="M26.8137 11.9813L25.7203 10.8879C25.6675 10.8356 25.5961 10.8062 25.5217 10.8062C25.4473 10.8062 25.3759 10.8356 25.323 10.8879L23.3332 12.8778C23.2809 12.9306 23.2515 13.002 23.2515 13.0764C23.2515 13.1508 23.2809 13.2222 23.3332 13.275L24.4266 14.3684C24.5355 14.4774 24.7148 14.4774 24.8238 14.3684L26.8137 12.3785C26.9227 12.2696 26.9227 12.0903 26.8137 11.9813ZM26.3672 18.9141V20.4609C26.3672 20.6156 26.4937 20.7422 26.6484 20.7422H29.4609C29.6156 20.7422 29.7422 20.6156 29.7422 20.4609V18.9141C29.7422 18.7594 29.6156 18.6328 29.4609 18.6328H26.6484C26.4937 18.6328 26.3672 18.7594 26.3672 18.9141ZM10.691 10.8879C10.6382 10.8356 10.5668 10.8062 10.4924 10.8062C10.418 10.8062 10.3466 10.8356 10.2937 10.8879L9.20039 11.9813C9.14805 12.0341 9.11869 12.1055 9.11869 12.1799C9.11869 12.2543 9.14805 12.3257 9.20039 12.3785L11.1902 14.3684C11.2992 14.4774 11.4785 14.4774 11.5875 14.3684L12.6809 13.275C12.7898 13.166 12.7898 12.9867 12.6809 12.8778L10.691 10.8879ZM9.21094 18.6328H6.39844C6.24375 18.6328 6.11719 18.7594 6.11719 18.9141V20.4609C6.11719 20.6156 6.24375 20.7422 6.39844 20.7422H9.21094C9.36562 20.7422 9.49219 20.6156 9.49219 20.4609V18.9141C9.49219 18.7594 9.36562 18.6328 9.21094 18.6328Z" fill="#C52390"/>
</svg>
